<svg xmlns="http://www.w3.org/2000/svg" viewBox="0 0 96.99 21.83"><defs><style>.cls-1,.cls-2{fill:#2b3740;}.cls-2{font-size:4.42px;font-family:adelia;}</style></defs><g id="Capa_2" data-name="Capa 2"><g id="Capa_1-2" data-name="Capa 1"><path class="cls-1" d="M31.36,15.71v.06l-.18,0s-.07,0-.08.08a.65.65,0,0,0,0,.17v1.58a.74.74,0,0,0,0,.18.14.14,0,0,0,.08.07l.18,0V18H30.28V17.9l.19,0a.11.11,0,0,0,.08-.07.44.44,0,0,0,0-.18V15.89h0L29.69,18h-.06l-1-2.06v1.58a.78.78,0,0,0,0,.24.18.18,0,0,0,.09.12.89.89,0,0,0,.23,0V18h-.72V17.9a.56.56,0,0,0,.19,0,.18.18,0,0,0,.08-.12,1.06,1.06,0,0,0,0-.21V16a.65.65,0,0,0,0-.17.16.16,0,0,0-.08-.08l-.19,0v-.06h.83l.79,1.71-.08,0,.77-1.75h.77Z"/><path class="cls-1" d="M32.52,16.27a.73.73,0,0,1,.51.17.7.7,0,0,1,.19.54H32v-.06h.82a1.32,1.32,0,0,0,0-.29.41.41,0,0,0-.1-.21.19.19,0,0,0-.17-.08.28.28,0,0,0-.24.14.94.94,0,0,0-.13.46l0,0a.28.28,0,0,0,0,.09v.1a.8.8,0,0,0,.07.36.49.49,0,0,0,.43.28.57.57,0,0,0,.18,0,.44.44,0,0,0,.17-.08.66.66,0,0,0,.16-.17l.07,0a1,1,0,0,1-.14.23.76.76,0,0,1-.24.18.91.91,0,0,1-.35.07,1.05,1.05,0,0,1-.44-.1.68.68,0,0,1-.3-.28,1,1,0,0,1-.1-.47,1,1,0,0,1,.11-.49.75.75,0,0,1,.31-.3A.93.93,0,0,1,32.52,16.27Z"/><path class="cls-1" d="M34.34,16.27a.84.84,0,0,1,.29.05.35.35,0,0,1,.19.19l0,0a.38.38,0,0,0-.14-.14.45.45,0,0,0-.2,0,.36.36,0,0,0-.32.19,1.13,1.13,0,0,0-.12.59,1.63,1.63,0,0,0,0,.43.46.46,0,0,0,.14.24.31.31,0,0,0,.21.07.36.36,0,0,0,.24-.09.43.43,0,0,0,.13-.27l0,.09a.46.46,0,0,1-.18.29.54.54,0,0,1-.35.11.84.84,0,0,1-.39-.1.73.73,0,0,1-.27-.28,1.19,1.19,0,0,1-.09-.49,1,1,0,0,1,.11-.49.67.67,0,0,1,.3-.28A.87.87,0,0,1,34.34,16.27Zm.88-.8v2.14a.34.34,0,0,0,.06.22.24.24,0,0,0,.19.06V18H35l-.22,0V15.85a.29.29,0,0,0-.06-.21.21.21,0,0,0-.19-.07V15.5H35Z"/><path class="cls-1" d="M36.35,16.28v1.38a.25.25,0,0,0,.06.19.32.32,0,0,0,.19,0V18h-1v-.07a.32.32,0,0,0,.19,0,.25.25,0,0,0,.06-.19v-1a.33.33,0,0,0-.06-.21.21.21,0,0,0-.19-.07v-.07h.49A1.46,1.46,0,0,0,36.35,16.28Zm-.26-.78a.31.31,0,0,1,.22.07.18.18,0,0,1,.09.16.2.2,0,0,1-.09.17.31.31,0,0,1-.22.07.3.3,0,0,1-.21-.07.2.2,0,0,1-.09-.17.18.18,0,0,1,.09-.16A.3.3,0,0,1,36.09,15.5Z"/><path class="cls-1" d="M37.72,16.27a1,1,0,0,1,.25,0,.59.59,0,0,1,.2.07.41.41,0,0,1,.14.12.3.3,0,0,1,0,.16.22.22,0,0,1-.07.17.29.29,0,0,1-.19.06.26.26,0,0,1-.18-.06.18.18,0,0,1-.08-.15.21.21,0,0,1,.07-.15.28.28,0,0,1,.15-.08.23.23,0,0,0-.11-.07.33.33,0,0,0-.15,0,.46.46,0,0,0-.2.05.36.36,0,0,0-.15.15.67.67,0,0,0-.1.24,1.47,1.47,0,0,0,0,.32.9.9,0,0,0,.08.41.42.42,0,0,0,.18.21.44.44,0,0,0,.24.07.51.51,0,0,0,.17,0,.76.76,0,0,0,.18-.09.51.51,0,0,0,.15-.17l.07,0a.67.67,0,0,1-.13.23.84.84,0,0,1-.23.18.78.78,0,0,1-.35.08,1,1,0,0,1-.43-.1.68.68,0,0,1-.3-.28.9.9,0,0,1-.12-.48.86.86,0,0,1,.12-.47.69.69,0,0,1,.32-.31A1,1,0,0,1,37.72,16.27Z"/><path class="cls-1" d="M39.3,16.28v1.38a.25.25,0,0,0,.06.19.32.32,0,0,0,.19,0V18h-1v-.07a.32.32,0,0,0,.19,0,.25.25,0,0,0,.06-.19v-1a.41.41,0,0,0-.05-.21.24.24,0,0,0-.2-.07v-.07h.49A1.46,1.46,0,0,0,39.3,16.28Zm-.25-.78a.3.3,0,0,1,.21.07.18.18,0,0,1,.09.16.2.2,0,0,1-.09.17.3.3,0,0,1-.21.07.31.31,0,0,1-.22-.07.2.2,0,0,1-.09-.17.18.18,0,0,1,.09-.16A.31.31,0,0,1,39.05,15.5Z"/><path class="cls-1" d="M41.05,16.27a.9.9,0,0,1,.25,0l.15.09a.42.42,0,0,1,.09.16.88.88,0,0,1,0,.26v.85a.25.25,0,0,0,.06.19.32.32,0,0,0,.19,0V18h-.93v-.07a.25.25,0,0,0,.17,0,.31.31,0,0,0,0-.19v-1a.78.78,0,0,0,0-.16.16.16,0,0,0-.08-.1.22.22,0,0,0-.15,0,.48.48,0,0,0-.22.05.46.46,0,0,0-.15.16.56.56,0,0,0-.05.23v.82a.26.26,0,0,0,.05.19.22.22,0,0,0,.16,0V18h-.93v-.07a.35.35,0,0,0,.2,0,.26.26,0,0,0,0-.19v-1a.33.33,0,0,0,0-.21c0-.05-.1-.07-.2-.07v-.07h.49a1.6,1.6,0,0,0,.23,0v.32a.57.57,0,0,1,.25-.26A.86.86,0,0,1,41.05,16.27Z"/><path class="cls-1" d="M42.48,18a.54.54,0,0,1-.27-.05.34.34,0,0,1-.17-.14.36.36,0,0,1,0-.21.32.32,0,0,1,.07-.22.55.55,0,0,1,.19-.14l.24-.09.25-.07.19-.08a.13.13,0,0,0,.07-.11v-.24a.25.25,0,0,0,0-.16.17.17,0,0,0-.1-.1.29.29,0,0,0-.17,0l-.16,0a.32.32,0,0,0-.14.08.28.28,0,0,1,.15.08.24.24,0,0,1,.05.14.19.19,0,0,1-.07.16.33.33,0,0,1-.19.06.26.26,0,0,1-.19-.07.25.25,0,0,1,0-.31.39.39,0,0,1,.14-.1.75.75,0,0,1,.24-.09,1.55,1.55,0,0,1,.31,0,1.23,1.23,0,0,1,.29,0,.53.53,0,0,1,.21.11.36.36,0,0,1,.12.18,1,1,0,0,1,0,.26v.88a.16.16,0,0,0,0,.11s0,0,.07,0h.07l.07-.05,0,.06-.17.08a.66.66,0,0,1-.21,0,.58.58,0,0,1-.21,0,.24.24,0,0,1-.11-.09.57.57,0,0,1,0-.14.63.63,0,0,1-.21.19A.62.62,0,0,1,42.48,18Zm.22-.18a.29.29,0,0,0,.16,0,.39.39,0,0,0,.14-.12V17a.24.24,0,0,1-.11.08l-.14.08a.6.6,0,0,0-.15.09.43.43,0,0,0-.11.12.32.32,0,0,0-.05.18.27.27,0,0,0,.07.19A.29.29,0,0,0,42.7,17.8Z"/><path class="cls-1" d="M45.63,16.27a.73.73,0,0,1,.51.17.7.7,0,0,1,.18.54H45.08v-.06h.82a1.29,1.29,0,0,0,0-.29.51.51,0,0,0-.09-.21.19.19,0,0,0-.17-.08.28.28,0,0,0-.24.14.94.94,0,0,0-.13.46l0,0a.28.28,0,0,0,0,.09.31.31,0,0,0,0,.1.8.8,0,0,0,.08.36.49.49,0,0,0,.43.28.57.57,0,0,0,.18,0,.44.44,0,0,0,.17-.08.5.5,0,0,0,.15-.17l.07,0a.67.67,0,0,1-.13.23.76.76,0,0,1-.24.18,1,1,0,0,1-.35.07,1,1,0,0,1-.44-.1.68.68,0,0,1-.3-.28,1,1,0,0,1-.11-.47,1,1,0,0,1,.12-.49.75.75,0,0,1,.31-.3A.93.93,0,0,1,45.63,16.27Z"/><path class="cls-1" d="M47.27,16.27a.68.68,0,0,1,.26,0,1.13,1.13,0,0,1,.16.06c.09.06.14,0,.16-.1h.08a1.48,1.48,0,0,0,0,.22,3.23,3.23,0,0,0,0,.34h-.08a.62.62,0,0,0-.07-.23.4.4,0,0,0-.15-.19.42.42,0,0,0-.26-.07.36.36,0,0,0-.19.05.21.21,0,0,0-.08.17.24.24,0,0,0,.07.16.61.61,0,0,0,.17.14l.22.13a2.5,2.5,0,0,1,.24.16.85.85,0,0,1,.16.17.4.4,0,0,1,.06.22.37.37,0,0,1-.09.25.57.57,0,0,1-.25.16.88.88,0,0,1-.33.06l-.18,0L47,18l-.08,0-.08,0a0,0,0,0,0-.07,0,.19.19,0,0,0,0,.09h-.08c0-.06,0-.15,0-.25v-.38h.08a1.84,1.84,0,0,0,.08.3.49.49,0,0,0,.16.21.45.45,0,0,0,.26.08.32.32,0,0,0,.14,0,.28.28,0,0,0,.11-.08.3.3,0,0,0-.07-.38l-.28-.2-.23-.15a1,1,0,0,1-.18-.17.45.45,0,0,1-.07-.23.32.32,0,0,1,.09-.24.49.49,0,0,1,.22-.14A.94.94,0,0,1,47.27,16.27Z"/><path class="cls-1" d="M48.94,15.79v.53h.48v.06h-.48v1.27a.22.22,0,0,0,.05.16.2.2,0,0,0,.14.05.22.22,0,0,0,.15-.06.44.44,0,0,0,.13-.18l.06,0a.52.52,0,0,1-.17.26A.44.44,0,0,1,49,18a.58.58,0,0,1-.21,0,.53.53,0,0,1-.15-.08.36.36,0,0,1-.11-.17,1,1,0,0,1,0-.28V16.38h-.32v-.06h.32v-.45l.25,0A.73.73,0,0,0,48.94,15.79Z"/><path class="cls-1" d="M50.47,16.27a.73.73,0,0,1,.51.17.7.7,0,0,1,.19.54H49.92v-.06h.82a1.32,1.32,0,0,0,0-.29.41.41,0,0,0-.1-.21.19.19,0,0,0-.17-.08.28.28,0,0,0-.24.14.94.94,0,0,0-.13.46l0,0a.28.28,0,0,0,0,.09v.1a.8.8,0,0,0,.07.36.49.49,0,0,0,.43.28.57.57,0,0,0,.18,0,.38.38,0,0,0,.17-.08.66.66,0,0,0,.16-.17l.07,0a1,1,0,0,1-.14.23.76.76,0,0,1-.24.18.91.91,0,0,1-.35.07,1.05,1.05,0,0,1-.44-.1.68.68,0,0,1-.3-.28,1,1,0,0,1-.1-.47,1,1,0,0,1,.11-.49.75.75,0,0,1,.31-.3A.93.93,0,0,1,50.47,16.27Zm.39-.91a.13.13,0,0,1,.06.11.22.22,0,0,1-.06.13.47.47,0,0,1-.13.11,1.86,1.86,0,0,0-.2.14l-.27.2,0,0a3.08,3.08,0,0,0,.16-.28l.1-.19a.56.56,0,0,1,.1-.15.27.27,0,0,1,.14-.07A.17.17,0,0,1,50.86,15.36Z"/><path class="cls-1" d="M52.1,15.79v.53h.47v.06H52.1v1.27a.22.22,0,0,0,0,.16.2.2,0,0,0,.14.05.24.24,0,0,0,.15-.06.44.44,0,0,0,.13-.18l.06,0a.52.52,0,0,1-.17.26.46.46,0,0,1-.32.11.69.69,0,0,1-.22,0l-.15-.08a.33.33,0,0,1-.1-.17,1,1,0,0,1,0-.28V16.38h-.33v-.06h.33v-.45l.24,0A.79.79,0,0,0,52.1,15.79Z"/><path class="cls-1" d="M53.42,16.28v1.38a.31.31,0,0,0,0,.19.35.35,0,0,0,.2,0V18h-1v-.07a.35.35,0,0,0,.2,0,.31.31,0,0,0,.05-.19v-1a.33.33,0,0,0-.05-.21.23.23,0,0,0-.2-.07v-.07h.49A1.6,1.6,0,0,0,53.42,16.28Zm-.26-.78a.32.32,0,0,1,.22.07.19.19,0,0,1,.08.16.21.21,0,0,1-.08.17.38.38,0,0,1-.44,0,.21.21,0,0,1-.08-.17.19.19,0,0,1,.08-.16A.32.32,0,0,1,53.16,15.5Z"/><path class="cls-1" d="M54.78,16.27a1,1,0,0,1,.25,0,.52.52,0,0,1,.2.07.33.33,0,0,1,.14.12.25.25,0,0,1,.06.16.23.23,0,0,1-.08.17.28.28,0,0,1-.18.06.29.29,0,0,1-.19-.06.17.17,0,0,1-.07-.15.2.2,0,0,1,.06-.15.28.28,0,0,1,.15-.08.2.2,0,0,0-.1-.07.4.4,0,0,0-.15,0,.42.42,0,0,0-.2.05.45.45,0,0,0-.16.15.91.91,0,0,0-.1.24,1.51,1.51,0,0,0,0,.32.92.92,0,0,0,.07.41.44.44,0,0,0,.19.21.4.4,0,0,0,.24.07l.17,0a.7.7,0,0,0,.17-.09.53.53,0,0,0,.16-.17l.07,0a.89.89,0,0,1-.13.23.76.76,0,0,1-.24.18.72.72,0,0,1-.35.08,1,1,0,0,1-.42-.1.76.76,0,0,1-.31-.28,1,1,0,0,1-.11-.48,1,1,0,0,1,.11-.47.79.79,0,0,1,.32-.31A1,1,0,0,1,54.78,16.27Z"/><path class="cls-1" d="M56.17,18a.54.54,0,0,1-.27-.05.34.34,0,0,1-.17-.14.46.46,0,0,1,0-.21.32.32,0,0,1,.07-.22.55.55,0,0,1,.19-.14l.25-.09.24-.07.19-.08a.13.13,0,0,0,.07-.11v-.24a.35.35,0,0,0,0-.16.21.21,0,0,0-.11-.1.29.29,0,0,0-.17,0l-.16,0a.32.32,0,0,0-.14.08.28.28,0,0,1,.15.08.24.24,0,0,1,.05.14.19.19,0,0,1-.07.16.31.31,0,0,1-.19.06.26.26,0,0,1-.19-.07.25.25,0,0,1,0-.31.39.39,0,0,1,.14-.1.75.75,0,0,1,.24-.09,1.55,1.55,0,0,1,.31,0,1.23,1.23,0,0,1,.29,0,.47.47,0,0,1,.21.11.36.36,0,0,1,.12.18,1,1,0,0,1,0,.26v.88a.16.16,0,0,0,0,.11s0,0,.07,0h.07l.07-.05,0,.06-.17.08a.66.66,0,0,1-.21,0,.58.58,0,0,1-.21,0,.24.24,0,0,1-.11-.09.57.57,0,0,1,0-.14.55.55,0,0,1-.21.19A.62.62,0,0,1,56.17,18Zm.22-.18a.29.29,0,0,0,.16,0,.39.39,0,0,0,.14-.12V17a.27.27,0,0,1-.1.08l-.15.08-.15.09a.43.43,0,0,0-.11.12.32.32,0,0,0,0,.18.27.27,0,0,0,.07.19A.29.29,0,0,0,56.39,17.8Z"/><path class="cls-1" d="M60.06,16.31v.07a.24.24,0,0,0-.13.07.52.52,0,0,0-.12.19l-.54,1.29-.12.15-.76-1.52a.33.33,0,0,0-.13-.15l-.1,0v-.07l.22,0h.5l.24,0v.07H59s-.07,0-.08.05,0,.08,0,.15l.46,1,0,0,.32-.76a.49.49,0,0,0,.05-.24.17.17,0,0,0-.08-.14.36.36,0,0,0-.19-.06v-.07h.62Zm-.79,1.62-.14.32a.87.87,0,0,1-.08.14.24.24,0,0,1-.08.09.3.3,0,0,1-.14.06l-.17,0a.51.51,0,0,1-.17,0,.33.33,0,0,1-.13-.07.22.22,0,0,1,0-.14.16.16,0,0,1,.07-.14.27.27,0,0,1,.19-.05.29.29,0,0,1,.17,0,.17.17,0,0,1,0,.25.18.18,0,0,1-.11.07h.06a.31.31,0,0,0,.19-.06.47.47,0,0,0,.14-.19l.13-.32Z"/><path class="cls-1" d="M62.26,16.27a.88.88,0,0,1,.24,0,.49.49,0,0,1,.15.09.26.26,0,0,1,.09.16,1,1,0,0,1,0,.26v.85a.31.31,0,0,0,0,.19.32.32,0,0,0,.19,0V18h-.9v-.07a.21.21,0,0,0,.15,0,.31.31,0,0,0,.05-.19v-1a.78.78,0,0,0,0-.16.17.17,0,0,0-.06-.1.21.21,0,0,0-.15,0,.46.46,0,0,0-.2.05.39.39,0,0,0-.15.16.43.43,0,0,0,0,.23v.82a.32.32,0,0,0,0,.19.22.22,0,0,0,.16,0V18H61v-.07a.3.3,0,0,0,.19,0,.25.25,0,0,0,.06-.19v-1a.41.41,0,0,0-.05-.21.23.23,0,0,0-.2-.07v-.07h.49a1.6,1.6,0,0,0,.23,0v.32a.53.53,0,0,1,.24-.25A.68.68,0,0,1,62.26,16.27Zm1.11,0a.88.88,0,0,1,.24,0,.66.66,0,0,1,.15.09.26.26,0,0,1,.09.16,1,1,0,0,1,0,.26v.85a.25.25,0,0,0,.06.19.32.32,0,0,0,.19,0V18h-.91v-.07a.21.21,0,0,0,.15,0,.31.31,0,0,0,.05-.19v-1a.78.78,0,0,0,0-.16.14.14,0,0,0-.07-.1.22.22,0,0,0-.15,0,.37.37,0,0,0-.21.06.46.46,0,0,0-.15.16.54.54,0,0,0,0,.22l0-.23a.57.57,0,0,1,.26-.27A.86.86,0,0,1,63.37,16.27Z"/><path class="cls-1" d="M65,16.28v1.38a.25.25,0,0,0,.06.19.3.3,0,0,0,.19,0V18h-1v-.07a.33.33,0,0,0,.2,0,.26.26,0,0,0,0-.19v-1a.33.33,0,0,0,0-.21c0-.05-.1-.07-.2-.07v-.07h.49A1.6,1.6,0,0,0,65,16.28Zm-.26-.78a.32.32,0,0,1,.22.07.17.17,0,0,1,.08.16.19.19,0,0,1-.08.17.38.38,0,0,1-.44,0,.21.21,0,0,1-.08-.17.19.19,0,0,1,.08-.16A.32.32,0,0,1,64.73,15.5Z"/><path class="cls-1" d="M66.35,16.27a1.09,1.09,0,0,1,.26,0,.68.68,0,0,1,.2.07.41.41,0,0,1,.14.12.3.3,0,0,1,0,.16.23.23,0,0,1-.08.17.28.28,0,0,1-.18.06.29.29,0,0,1-.19-.06.2.2,0,0,1-.07-.15.2.2,0,0,1,.06-.15.35.35,0,0,1,.16-.08.3.3,0,0,0-.11-.07.37.37,0,0,0-.15,0,.42.42,0,0,0-.2.05.36.36,0,0,0-.15.15.53.53,0,0,0-.1.24,1,1,0,0,0,0,.32,1.08,1.08,0,0,0,.07.41.44.44,0,0,0,.19.21.44.44,0,0,0,.24.07l.17,0a.56.56,0,0,0,.17-.09A.53.53,0,0,0,67,17.5l.07,0a.89.89,0,0,1-.13.23.84.84,0,0,1-.23.18.8.8,0,0,1-.36.08,1,1,0,0,1-.42-.1.76.76,0,0,1-.31-.28,1,1,0,0,1-.11-.48.86.86,0,0,1,.12-.47.71.71,0,0,1,.31-.31A1,1,0,0,1,66.35,16.27Z"/><path class="cls-1" d="M68.45,16.27a.36.36,0,0,1,.19,0,.23.23,0,0,1,.11.11.2.2,0,0,1,0,.13.23.23,0,0,1-.26.24.24.24,0,0,1-.18-.05.15.15,0,0,1-.07-.14.2.2,0,0,1,0-.13.48.48,0,0,1,.11-.09h-.09a.35.35,0,0,0-.17.06.43.43,0,0,0-.12.11.55.55,0,0,0-.08.15.5.5,0,0,0,0,.16v.78q0,.16.09.21a.5.5,0,0,0,.27.05V18H67.23v-.07a.32.32,0,0,0,.19,0,.25.25,0,0,0,.06-.19v-1a.33.33,0,0,0-.06-.21.21.21,0,0,0-.19-.07v-.07h.48a1.43,1.43,0,0,0,.23,0v.33a.88.88,0,0,1,.12-.17.43.43,0,0,1,.17-.12A.54.54,0,0,1,68.45,16.27Z"/><path class="cls-1" d="M69.85,16.27a1.14,1.14,0,0,1,.46.09.7.7,0,0,1,.31.28,1.19,1.19,0,0,1,0,1,.7.7,0,0,1-.31.28,1.14,1.14,0,0,1-.46.09,1.06,1.06,0,0,1-.45-.09.65.65,0,0,1-.31-.28,1.1,1.1,0,0,1,0-1,.65.65,0,0,1,.31-.28A1.06,1.06,0,0,1,69.85,16.27Zm0,.06a.33.33,0,0,0-.28.19,1.34,1.34,0,0,0-.11.62,1.3,1.3,0,0,0,.11.61.32.32,0,0,0,.28.19.31.31,0,0,0,.28-.19,1.18,1.18,0,0,0,.11-.61,1.22,1.22,0,0,0-.11-.62A.32.32,0,0,0,69.85,16.33Z"/><path class="cls-1" d="M71.67,16.28v1.95a.2.2,0,0,0,.09.19.55.55,0,0,0,.25,0v.07H71v-.07a.25.25,0,0,0,.17,0,.21.21,0,0,0,.06-.17v-1.6a.33.33,0,0,0-.06-.21.24.24,0,0,0-.19-.07v-.06h.49Zm.58,0a.62.62,0,0,1,.58.36.93.93,0,0,1,.09.44,1.16,1.16,0,0,1-.06.38,1,1,0,0,1-.16.3,1,1,0,0,1-.27.19,1,1,0,0,1-.36.07.64.64,0,0,1-.28-.06.29.29,0,0,1-.17-.13l0-.05a.32.32,0,0,0,.12.11.38.38,0,0,0,.19,0,.37.37,0,0,0,.28-.1.47.47,0,0,0,.14-.28,1.73,1.73,0,0,0,.05-.42,2.12,2.12,0,0,0,0-.42.39.39,0,0,0-.13-.23.26.26,0,0,0-.19-.08.4.4,0,0,0-.27.11.43.43,0,0,0-.14.3l0-.09a.59.59,0,0,1,.22-.33A.77.77,0,0,1,72.25,16.27Z"/><path class="cls-1" d="M73.88,16.28v1.38a.31.31,0,0,0,.05.19.35.35,0,0,0,.2,0V18h-1v-.07a.35.35,0,0,0,.2,0,.31.31,0,0,0,0-.19v-1a.33.33,0,0,0,0-.21.23.23,0,0,0-.2-.07v-.07h.49A1.6,1.6,0,0,0,73.88,16.28Zm-.26-.78a.32.32,0,0,1,.22.07.19.19,0,0,1,.08.16.21.21,0,0,1-.08.17.38.38,0,0,1-.44,0,.21.21,0,0,1-.08-.17.19.19,0,0,1,.08-.16A.32.32,0,0,1,73.62,15.5Z"/><path class="cls-1" d="M75,18.56a1.64,1.64,0,0,1-.4,0,.71.71,0,0,1-.28-.1.19.19,0,0,1-.1-.17.21.21,0,0,1,.1-.18.69.69,0,0,1,.31-.13l0,.06a.24.24,0,0,0-.11.09.28.28,0,0,0,0,.13.24.24,0,0,0,.14.21.87.87,0,0,0,.39.08,1.55,1.55,0,0,0,.31,0,.57.57,0,0,0,.22-.12.25.25,0,0,0,.09-.2.19.19,0,0,0-.09-.16.5.5,0,0,0-.33-.07H75a1,1,0,0,1-.25,0,.37.37,0,0,1-.18-.08.21.21,0,0,1-.06-.16.28.28,0,0,1,.12-.22,1.28,1.28,0,0,1,.36-.2l0,0-.16.09a.13.13,0,0,0-.07.12c0,.07,0,.1.16.1h.42a1.67,1.67,0,0,1,.34,0,.68.68,0,0,1,.24.13A.36.36,0,0,1,76,18a.42.42,0,0,1-.11.29,1,1,0,0,1-.34.21A2,2,0,0,1,75,18.56Zm0-1.28a1,1,0,0,1-.36-.05.51.51,0,0,1-.25-.17.43.43,0,0,1-.09-.28.44.44,0,0,1,.09-.29.58.58,0,0,1,.25-.17,1.36,1.36,0,0,1,.36-.05,1.25,1.25,0,0,1,.36.05.58.58,0,0,1,.25.17.44.44,0,0,1,.1.29.43.43,0,0,1-.1.28.51.51,0,0,1-.25.17A1,1,0,0,1,75,17.28Zm0-.05a.24.24,0,0,0,.18-.1.73.73,0,0,0,.06-.35.78.78,0,0,0-.06-.36.23.23,0,0,0-.18-.09.2.2,0,0,0-.17.09.65.65,0,0,0-.07.36.61.61,0,0,0,.07.35A.21.21,0,0,0,75,17.23Zm.56-.69-.07,0a.38.38,0,0,1,.18-.2.42.42,0,0,1,.26-.08.23.23,0,0,1,.17.05.17.17,0,0,1,.06.14.16.16,0,0,1-.06.14.18.18,0,0,1-.24,0,.17.17,0,0,1-.06-.11.45.45,0,0,1,.06-.2h0a.64.64,0,0,0-.22.11A.61.61,0,0,0,75.59,16.54Z"/><path class="cls-1" d="M77.6,16.27a.78.78,0,0,1,.24,0l.16.09a.42.42,0,0,1,.09.16,1,1,0,0,1,0,.26v.85a.26.26,0,0,0,0,.19.28.28,0,0,0,.18,0V18h-.9v-.07a.25.25,0,0,0,.16,0,.32.32,0,0,0,0-.19v-1a.81.81,0,0,0,0-.16.14.14,0,0,0-.07-.1.2.2,0,0,0-.14,0,.38.38,0,0,0-.36.21.56.56,0,0,0,0,.23v.82a.31.31,0,0,0,0,.19s.08,0,.15,0V18h-.91v-.07a.32.32,0,0,0,.19,0,.25.25,0,0,0,.06-.19v-1a.33.33,0,0,0-.06-.21.21.21,0,0,0-.19-.07v-.07h.48a1.43,1.43,0,0,0,.23,0v.32a.55.55,0,0,1,.25-.25A.62.62,0,0,1,77.6,16.27Zm1.11,0a.78.78,0,0,1,.24,0l.16.09a.42.42,0,0,1,.09.16,1,1,0,0,1,0,.26v.85a.26.26,0,0,0,0,.19.35.35,0,0,0,.2,0V18h-.92v-.07a.21.21,0,0,0,.15,0,.26.26,0,0,0,.05-.19v-1a.41.41,0,0,0,0-.16.17.17,0,0,0-.06-.1.25.25,0,0,0-.16,0,.36.36,0,0,0-.2.06.33.33,0,0,0-.15.16.43.43,0,0,0-.06.22l0-.23a.59.59,0,0,1,.27-.27A.84.84,0,0,1,78.71,16.27Z"/><path class="cls-1" d="M80.55,16.27a.77.77,0,0,1,.51.17.7.7,0,0,1,.18.54H80v-.06h.81a.9.9,0,0,0,0-.29.51.51,0,0,0-.09-.21.2.2,0,0,0-.17-.08.28.28,0,0,0-.24.14.84.84,0,0,0-.13.46v0s0,.06,0,.09v.1a.8.8,0,0,0,.08.36.48.48,0,0,0,.19.21.55.55,0,0,0,.24.07.51.51,0,0,0,.17,0,.48.48,0,0,0,.18-.08.86.86,0,0,0,.15-.17l.07,0a.89.89,0,0,1-.13.23,1.08,1.08,0,0,1-.24.18,1,1,0,0,1-.35.07,1,1,0,0,1-.44-.1.68.68,0,0,1-.3-.28,1,1,0,0,1-.11-.47,1.07,1.07,0,0,1,.11-.49.81.81,0,0,1,.31-.3A1,1,0,0,1,80.55,16.27Z"/><path class="cls-1" d="M82.8,16.27a.81.81,0,0,1,.25,0,.66.66,0,0,1,.15.09.34.34,0,0,1,.1.16.88.88,0,0,1,0,.26v.85a.31.31,0,0,0,0,.19.35.35,0,0,0,.2,0V18h-.93v-.07a.22.22,0,0,0,.16,0,.26.26,0,0,0,0-.19v-1a.41.41,0,0,0,0-.16.14.14,0,0,0-.07-.1.25.25,0,0,0-.16,0,.46.46,0,0,0-.21.05.33.33,0,0,0-.15.16.43.43,0,0,0,0,.23v.82a.32.32,0,0,0,0,.19.27.27,0,0,0,.17,0V18h-.93v-.07a.3.3,0,0,0,.19,0,.25.25,0,0,0,.06-.19v-1a.41.41,0,0,0,0-.21.23.23,0,0,0-.2-.07v-.07H82a1.6,1.6,0,0,0,.23,0v.32a.53.53,0,0,1,.25-.26A.84.84,0,0,1,82.8,16.27Z"/><path class="cls-1" d="M84.42,15.79v.53h.47v.06h-.47v1.27c0,.08,0,.13,0,.16a.17.17,0,0,0,.13.05.25.25,0,0,0,.16-.06.56.56,0,0,0,.12-.18l.07,0a.69.69,0,0,1-.17.26.49.49,0,0,1-.33.11.66.66,0,0,1-.21,0,.53.53,0,0,1-.15-.08.45.45,0,0,1-.11-.17,1,1,0,0,1,0-.28V16.38h-.32v-.06H84v-.45l.25,0A.79.79,0,0,0,84.42,15.79Z"/><path class="cls-1" d="M85.53,18a.54.54,0,0,1-.27-.05.32.32,0,0,1-.16-.14.37.37,0,0,1-.06-.21.32.32,0,0,1,.07-.22.67.67,0,0,1,.19-.14l.25-.09.24-.07A.68.68,0,0,0,86,17a.13.13,0,0,0,.07-.11v-.24a.35.35,0,0,0,0-.16.24.24,0,0,0-.1-.1.34.34,0,0,0-.18,0l-.16,0a.39.39,0,0,0-.14.08.22.22,0,0,1,.15.08.22.22,0,0,1,0,.3.29.29,0,0,1-.19.06.25.25,0,0,1-.18-.07.21.21,0,0,1-.07-.16.25.25,0,0,1,.05-.15.56.56,0,0,1,.15-.1.69.69,0,0,1,.23-.09,1.58,1.58,0,0,1,.32,0,1.2,1.2,0,0,1,.28,0,.51.51,0,0,1,.22.11.34.34,0,0,1,.11.18,1,1,0,0,1,0,.26v.88a.27.27,0,0,0,0,.11.08.08,0,0,0,.07,0h.07l.07-.05,0,.06-.17.08a.62.62,0,0,1-.21,0,.53.53,0,0,1-.2,0,.2.2,0,0,1-.11-.09.23.23,0,0,1,0-.14.57.57,0,0,1-.22.19A.62.62,0,0,1,85.53,18Zm.22-.18a.33.33,0,0,0,.17,0,.37.37,0,0,0,.13-.12V17a.27.27,0,0,1-.1.08l-.15.08a.42.42,0,0,0-.14.09.34.34,0,0,0-.12.12.32.32,0,0,0,0,.18.24.24,0,0,0,.07.19A.26.26,0,0,0,85.75,17.8Z"/><path class="cls-1" d="M87.84,16.27a1,1,0,0,1,.26,0,.68.68,0,0,1,.2.07.41.41,0,0,1,.14.12.3.3,0,0,1,0,.16.26.26,0,0,1-.07.17.29.29,0,0,1-.19.06.26.26,0,0,1-.18-.06.18.18,0,0,1-.08-.15.18.18,0,0,1,.07-.15.28.28,0,0,1,.15-.08.23.23,0,0,0-.11-.07.33.33,0,0,0-.15,0,.46.46,0,0,0-.2.05.36.36,0,0,0-.15.15.53.53,0,0,0-.1.24,1,1,0,0,0,0,.32.9.9,0,0,0,.08.41.38.38,0,0,0,.18.21.44.44,0,0,0,.24.07.51.51,0,0,0,.17,0,.56.56,0,0,0,.17-.09.53.53,0,0,0,.16-.17l.07,0a.89.89,0,0,1-.13.23.84.84,0,0,1-.23.18.78.78,0,0,1-.35.08,1,1,0,0,1-.43-.1.68.68,0,0,1-.3-.28.9.9,0,0,1-.12-.48.86.86,0,0,1,.12-.47.69.69,0,0,1,.32-.31A1,1,0,0,1,87.84,16.27Z"/><path class="cls-1" d="M89.43,16.28v1.38a.25.25,0,0,0,.06.19.32.32,0,0,0,.19,0V18h-1v-.07a.32.32,0,0,0,.19,0,.25.25,0,0,0,.06-.19v-1a.41.41,0,0,0,0-.21.24.24,0,0,0-.2-.07v-.07h.49A1.46,1.46,0,0,0,89.43,16.28Zm-.25-.78a.3.3,0,0,1,.21.07.18.18,0,0,1,.09.16.2.2,0,0,1-.09.17.3.3,0,0,1-.21.07A.31.31,0,0,1,89,15.9a.2.2,0,0,1-.09-.17.18.18,0,0,1,.09-.16A.31.31,0,0,1,89.18,15.5Z"/><path class="cls-1" d="M90.79,16.27a1.06,1.06,0,0,1,.45.09.65.65,0,0,1,.31.28,1.1,1.1,0,0,1,0,1,.65.65,0,0,1-.31.28,1.17,1.17,0,0,1-.9,0,.67.67,0,0,1-.32-.28,1.19,1.19,0,0,1,0-1,.67.67,0,0,1,.32-.28A1.06,1.06,0,0,1,90.79,16.27Zm0,.06a.32.32,0,0,0-.28.19,1.22,1.22,0,0,0-.11.62,1.18,1.18,0,0,0,.11.61.31.31,0,0,0,.28.19.32.32,0,0,0,.28-.19,1.3,1.3,0,0,0,.11-.61,1.34,1.34,0,0,0-.11-.62A.33.33,0,0,0,90.79,16.33Zm.4-1a.13.13,0,0,1,.06.11s0,.08,0,.13a.53.53,0,0,1-.14.11l-.2.14-.27.2,0,0c.07-.11.13-.2.17-.28a1.54,1.54,0,0,0,.09-.19.56.56,0,0,1,.1-.15.27.27,0,0,1,.14-.07A.17.17,0,0,1,91.19,15.36Z"/><path class="cls-1" d="M93.24,16.27a.78.78,0,0,1,.24,0l.16.09a.42.42,0,0,1,.09.16.88.88,0,0,1,0,.26v.85a.25.25,0,0,0,.06.19.3.3,0,0,0,.19,0V18h-.93v-.07a.27.27,0,0,0,.17,0,.32.32,0,0,0,0-.19v-1a.81.81,0,0,0,0-.16.2.2,0,0,0-.08-.1.24.24,0,0,0-.16,0,.38.38,0,0,0-.36.21.56.56,0,0,0-.05.23v.82a.26.26,0,0,0,.05.19.22.22,0,0,0,.16,0V18h-.93v-.07a.35.35,0,0,0,.2,0,.31.31,0,0,0,0-.19v-1a.33.33,0,0,0,0-.21.23.23,0,0,0-.2-.07v-.07h.49a1.6,1.6,0,0,0,.23,0v.32a.53.53,0,0,1,.25-.26A.86.86,0,0,1,93.24,16.27Z"/><text class="cls-2" transform="translate(26.99 9.43) scale(1.16 1)">Dra Jenny Sarmiento </text><path class="cls-1" d="M20.38,8.28a4.26,4.26,0,0,0-2.66-1.94,4.07,4.07,0,0,0-1.32,0L15,6.51a1,1,0,0,0,.21-.18,1.71,1.71,0,0,0,.16-1.88,3.21,3.21,0,0,0-.81-.85s0-.11,0-.18a2,2,0,0,0-.06-.23,4.44,4.44,0,0,0-.77-1.54A4.62,4.62,0,0,0,11.46.15,4.4,4.4,0,0,0,8.79.27a4.21,4.21,0,0,0-1.45.89A4.45,4.45,0,0,0,6.16,3a5.29,5.29,0,0,0,0,3.13A6.1,6.1,0,0,0,7.93,9.05a2.11,2.11,0,0,1-.78.5,4.12,4.12,0,0,1-1.61.13,2.1,2.1,0,0,1-.42-.12A1.26,1.26,0,0,0,5.34,9a1.53,1.53,0,0,0,0-.61,2.15,2.15,0,0,0-.77-.93,2.21,2.21,0,0,0-.93-.35A1.51,1.51,0,0,1,4.18,6a1.26,1.26,0,0,1,1.38-.1.8.8,0,0,1,.35.7.55.55,0,0,1-.35.46A.4.4,0,0,1,5.14,7a.34.34,0,0,1,0-.29.15.15,0,0,1,.11-.1.17.17,0,0,1,.2.07c0,.06,0,.13,0,.13s.09-.12,0-.22a.22.22,0,0,0-.12-.13.33.33,0,0,0-.3,0A.3.3,0,0,0,5,6.52.54.54,0,0,0,4.9,7,.74.74,0,0,0,5,7.19a.62.62,0,0,0,.45.17A.76.76,0,0,0,6.06,7a1,1,0,0,0,.09-.76.92.92,0,0,0-.24-.46,1.1,1.1,0,0,0-.46-.27,3.06,3.06,0,0,0-.51-.1,1.83,1.83,0,0,0-1,.26A2.56,2.56,0,0,0,3.51,6a2.06,2.06,0,0,0-.33.42,2.37,2.37,0,0,0-.32.83,3.85,3.85,0,0,0-1.59.87A4.23,4.23,0,0,0,.43,13a3.93,3.93,0,0,0,1.36,1.47,5.19,5.19,0,0,0,2.15.63,5.24,5.24,0,0,0,1.58-.17h0a1.17,1.17,0,0,0-.42.57,2.07,2.07,0,0,0-.12.65,1.75,1.75,0,0,0,.13.68,2,2,0,0,0,.36.57L6.62,18,6,17.65a4.28,4.28,0,0,0,.17,1.09,4.34,4.34,0,0,0,2.68,2.83,4.38,4.38,0,0,0,2.63.1,4.59,4.59,0,0,0,2.49-1.87,5.54,5.54,0,0,0,.87-2.8,6.43,6.43,0,0,0,0-1.51v0a1.14,1.14,0,0,0,.52.38,2.05,2.05,0,0,0,.6.11,1.58,1.58,0,0,0,.61-.12,1.77,1.77,0,0,0,.52-.33l.21-.22a.94.94,0,0,0,.18-.25,1.35,1.35,0,0,0,.22-.59.78.78,0,0,0,0-.32,4,4,0,0,0,1.34-.5,4.29,4.29,0,0,0,1.92-2.95A4,4,0,0,0,20.38,8.28ZM8.28,2A3.25,3.25,0,0,1,10.42,1a3.25,3.25,0,0,1,2.23.74,3.24,3.24,0,0,1,.78,1,2.68,2.68,0,0,1,.21.74h-.13a2.92,2.92,0,0,0-1.21.2c-1.09.44-2.14,2.45-3.22,4a5.29,5.29,0,0,1-1.67-3A3.65,3.65,0,0,1,8.28,2Zm.16,8.14a2.35,2.35,0,0,0,.32-.23l1.55,1.56c.39.39.75.73,1.07,1.07a5.27,5.27,0,0,0-.5.55,4.39,4.39,0,0,0-.76,1.56,4.57,4.57,0,0,0-.17-1c0-.09-.06-.19-.1-.29s-.07-.19-.1-.29-.09-.19-.13-.29l-.15-.27a4.81,4.81,0,0,0-1.74-1.73c-.14-.08-.3-.15-.45-.22l.14,0A3.53,3.53,0,0,0,8.44,10.16ZM5,8.41a1.28,1.28,0,0,1,.07,1.12A2,2,0,0,1,4.8,9.4,2.33,2.33,0,0,1,3.72,8.2a2.25,2.25,0,0,1-.11-.48A4.18,4.18,0,0,1,4,7.8,1.62,1.62,0,0,1,5,8.41Zm1,8.66A.28.28,0,0,1,5.84,17a1.3,1.3,0,0,1-.1-1.81.75.75,0,0,1,.92,0,.42.42,0,0,1,.18.37.38.38,0,0,1-.41.27c-.09,0-.22-.09-.23-.21a.21.21,0,0,1,.1-.17c.09-.05.2,0,.21,0a.28.28,0,0,0-.28-.13.31.31,0,0,0-.23.3.39.39,0,0,0,.09.24.53.53,0,0,0,.36.18.59.59,0,0,0,.43-.14.58.58,0,0,0,.18-.3.76.76,0,0,0-.24-.66.92.92,0,0,0-.64-.21l-.32,0-1.1-.09a4,4,0,0,1-1.59-.47A4.24,4.24,0,0,1,1.84,13,3.68,3.68,0,0,1,1.1,11.4a3.85,3.85,0,0,1,0-1.58,3.1,3.1,0,0,1,.25-.76,2.67,2.67,0,0,1,.53-.71,2.18,2.18,0,0,1,1-.56,3.09,3.09,0,0,0,.67,1.59,3.43,3.43,0,0,0,.77.73,3.63,3.63,0,0,0,2,.58,3.78,3.78,0,0,0,.49,0,3.73,3.73,0,0,1,.7.4,4.1,4.1,0,0,1,.85.76,4.59,4.59,0,0,1,.64.94,5.12,5.12,0,0,1,.38,1.06,3.4,3.4,0,0,1,.11,1.09,2.86,2.86,0,0,1-.9,1.89,2.77,2.77,0,0,1-.92.54,2.24,2.24,0,0,1-.58.14,1.52,1.52,0,0,1,.73-1.36,1.51,1.51,0,0,1,1.33,0c.78.34,1,1.27,1.06,1.24a2,2,0,0,0-.89-1.63A2,2,0,0,0,8,15.4a2.24,2.24,0,0,0-1.38.8C6.35,16.59,6.25,17.07,6,17.07Zm7.34,1.16A4.11,4.11,0,0,1,13,19.37a2.72,2.72,0,0,1-.74.88,3.35,3.35,0,0,1-2.32.64,3.11,3.11,0,0,1-1.2-.33,2.8,2.8,0,0,1-.95-.83,3.07,3.07,0,0,1-.52-1.18,4,4,0,0,1-.07-.48,3.28,3.28,0,0,0,3-3A5.23,5.23,0,0,1,11,13.57a5.84,5.84,0,0,1,.67-.68,7.19,7.19,0,0,1,.95,1.37A6.78,6.78,0,0,1,13.41,17,5.49,5.49,0,0,1,13.33,18.23ZM17,14.85a1.07,1.07,0,0,1-.13.19l-.16.18a1.24,1.24,0,0,1-.81.37.94.94,0,0,1-.84-.28.74.74,0,0,1,0-.82s.15-.2.32-.19.28.12.27.25a.2.2,0,0,1-.19.17c-.09,0-.14-.12-.16-.11s0,.17.12.23a.31.31,0,0,0,.36-.1.35.35,0,0,0,.07-.28c0-.26-.35-.37-.37-.37a.68.68,0,0,0-.41,0,.64.64,0,0,0-.24.21.82.82,0,0,0-.18.46,6.64,6.64,0,0,0-.28-.86,7.66,7.66,0,0,0-.73-1.37L13.25,12a5.41,5.41,0,0,1,.56-.12,3.73,3.73,0,0,1,1.7.16,1.72,1.72,0,0,0,0,.26,1.43,1.43,0,0,0,0,.52.2.2,0,0,1,0,.05,2.35,2.35,0,0,0,.72,1,2.2,2.2,0,0,0,.95.35c0,.05,0,.1,0,.15A1.28,1.28,0,0,1,17,14.85Zm-1.41-2.74a2.47,2.47,0,0,1,.94.54,1.18,1.18,0,0,1,.16.18l.13.21.06.1.05.12a2.14,2.14,0,0,1,.1.22,1.33,1.33,0,0,1,0,.19,2.07,2.07,0,0,1-.37-.08,1.57,1.57,0,0,1-1-.6A1.29,1.29,0,0,1,15.59,12.11Zm4-.53a2.7,2.7,0,0,1-.78,1.47,2.44,2.44,0,0,1-1.2.61,2,2,0,0,0-.09-.35c0-.09-.07-.18-.11-.27l-.06-.13-.07-.13a2.9,2.9,0,0,0-.35-.49,3.08,3.08,0,0,0-.95-.7,3.82,3.82,0,0,0-1.14-.28,4.9,4.9,0,0,0-1.93.31c-.7-.81-1.53-1.57-2.49-2.56h0l-.48-.49c.88-1.4,1.42-3.14,2.11-3.87a1.81,1.81,0,0,1,.55-.42,2.07,2.07,0,0,1,1-.2,1.82,1.82,0,0,1-1.15,1.13,1.76,1.76,0,0,1-1.17-.14,3.38,3.38,0,0,1-1.11-1,2,2,0,0,0,.86,1.43,2.37,2.37,0,0,0,3-.17,2.17,2.17,0,0,0,.44-.73c0-.18,0-.28.1-.3s.47.35.57.81a1.13,1.13,0,0,1-.23,1,.81.81,0,0,1-.69.23c-.21-.05-.47-.23-.46-.47A.37.37,0,0,1,14,5.59a.35.35,0,0,1,.38,0,.27.27,0,0,1,.07.26s0,.11-.12.12-.15-.09-.17-.08,0,.09.08.14A.3.3,0,0,0,14.59,6a.37.37,0,0,0,0-.36.41.41,0,0,0-.28-.23.6.6,0,0,0-.7.29.63.63,0,0,0,0,.52.82.82,0,0,0,.6.38,1.25,1.25,0,0,0,.3,0c.47,0,.93.08,1.4.11a4.3,4.3,0,0,1,1.6.47,4,4,0,0,1,1.32,1.21A3.69,3.69,0,0,1,19.63,10,3.77,3.77,0,0,1,19.59,11.58Z"/></g></g></svg>